<svg xmlns="http://www.w3.org/2000/svg" viewBox="0 0 276 137.2">
  <path
    d="M172.5,78.7a7.2,7.2,0,0,1-3.5-1,21.1,21.1,0,0,1-3.5-2.6,15.4,15.4,0,0,1-2.7-3.6,7.6,7.6,0,0,1-1-3.6,15.2,15.2,0,0,1,1.2-6.2,21.4,21.4,0,0,1,3-5.1c1.3-1.6,2.6-3.1,4-4.6l3.5-3.2a32.8,32.8,0,0,1,3.8-2.7,18,18,0,0,1,3.4-1.6,19.7,19.7,0,0,1,3.6-1,2.3,2.3,0,0,1,1.4.4,1.7,1.7,0,0,1,.9,1.4,2.1,2.1,0,0,1-.7,1.4,3.7,3.7,0,0,1-1.4,1,25.3,25.3,0,0,0-10.3,5.9,33.3,33.3,0,0,0-7.2,9.2,8.6,8.6,0,0,0-1.2,4.8,8,8,0,0,0,1.3,4.3,7.9,7.9,0,0,0,3.2,2.8,6.7,6.7,0,0,0,1.9.5,4.1,4.1,0,0,0,1.9.1l4-.9A19.5,19.5,0,0,0,181,73c.8-.6,1.7-1.2,2.6-2l3-2.8a10.2,10.2,0,0,0,1.3-1.7A8,8,0,0,0,189,64h-5.1a19,19,0,0,0-3.7.3l-3.1.3h-3.7c-.4,0-.8-.3-1.3-.9l-1.3-1.4,1.4-.8a3,3,0,0,1,1.5-.5l3.1-.3h2.5l3.2-.3a29.5,29.5,0,0,1,4.2-.1,6.2,6.2,0,0,1,3.8,1.7,3.7,3.7,0,0,1,1.7,2.8,5.1,5.1,0,0,1-1.1,3.1l-1.4,2a14.6,14.6,0,0,1-1.6,1.9l-3.8,2.9a23.3,23.3,0,0,1-5.2,2.8A16.9,16.9,0,0,1,172.5,78.7Z"
    transform="translate(-36.1 -6.3)" style="fill:#fff" />
  <path
    d="M217.9,59.1H206.6a2.2,2.2,0,0,0-1.7.7,3.1,3.1,0,0,0-.6,1.9c-.1,2-.3,4.1-.4,6.2s-.4,4.2-.7,6.3a1.9,1.9,0,0,1-.7,1.3L201.4,77a8.4,8.4,0,0,0-.6-1.4,3,3,0,0,1-.5-1.5c-.1-2.1-.1-4.3,0-6.5V60.9l-1-.5-1.1-.6c-.7-.6-1.1-1.1-1-1.7s.5-1,1.4-1.2,1.5-.5,1.6-1,.2-1.1.3-1.8c.1-2.4.3-4.9.5-7.3s.4-4.8.5-7.3a3.5,3.5,0,0,1,.5-1.8c.3-.5.9-.6,1.7-.3a4.7,4.7,0,0,1,1.4,1.2,2.3,2.3,0,0,1,.7,1.6c-.1,1.9-.2,3.8-.5,5.8l-.6,5.8v4h12.9a13.2,13.2,0,0,0,.1-5.6c-.3-1.8-.7-3.6-1.1-5.4a2,2,0,0,1,0-1.5c.1-.6.1-1.1.2-1.5l1.4.6a1.8,1.8,0,0,1,1,.9l1.5,2.9a8.7,8.7,0,0,1,.7,3.1q.4,6.2.6,12.3t.3,12.3a19.3,19.3,0,0,1-.1,2.4,19.4,19.4,0,0,1-.2,2.4c-.1.2-.2.5-.5.6l-.7.6-1-.9a2.4,2.4,0,0,1-.8-1,26.4,26.4,0,0,1-.2-2.9c0-.9-.1-1.9-.1-2.8s-.3-4.3-.4-6.5S218.1,61.3,217.9,59.1Z"
    transform="translate(-36.1 -6.3)" style="fill:#fff" />
  <path
    d="M236.1,77.9a8.5,8.5,0,0,1-3.1-.6,6,6,0,0,1-2.4-1.6,26.4,26.4,0,0,1-2-2.6,6.2,6.2,0,0,1-1-2.2,11.1,11.1,0,0,1-.4-2.8,13.9,13.9,0,0,1,2.2-6.2,22.8,22.8,0,0,1,4.3-5,3.7,3.7,0,0,1,2.3-1,4.7,4.7,0,0,1,2.4.4,16.2,16.2,0,0,1,4.2,2.2,8.3,8.3,0,0,1,2.5,2.8,9.4,9.4,0,0,1,1.3,4,18.2,18.2,0,0,1-2.5,7.1,14,14,0,0,1-5.3,4.9A4.6,4.6,0,0,1,236.1,77.9ZM234.4,74a4.1,4.1,0,0,0,1.6.3,2.5,2.5,0,0,0,1.5-.3,19.1,19.1,0,0,0,2.4-1.7,6.2,6.2,0,0,0,1.4-1.8,11.8,11.8,0,0,0,1-2.7c0-.2.1-.6.1-1.1V65.2a3.1,3.1,0,0,0-.1-1.1,8.6,8.6,0,0,0-2.1-2.9,7.2,7.2,0,0,0-2.8-1.6,3,3,0,0,0-2.6.6,8.1,8.1,0,0,0-1.8,2,10.2,10.2,0,0,0-.8,2.1,9.6,9.6,0,0,1-.8,2.4,11.3,11.3,0,0,0,0,2.6,6.1,6.1,0,0,0,.8,2.7A4.3,4.3,0,0,0,234.4,74Z"
    transform="translate(-36.1 -6.3)" style="fill:#fff" />
  <path
    d="M262.5,78.3a22,22,0,0,1-4.9.3,15.1,15.1,0,0,1-4.1-.6,7.6,7.6,0,0,1-3.5-1.9,4.1,4.1,0,0,1-.4-.9,1.2,1.2,0,0,1,.7-1.3c.5-.4.9-.5,1.3-.3l1.1.6,1.6.7a3,3,0,0,0,1.9.5,39.7,39.7,0,0,0,6.7-.8,32.5,32.5,0,0,0,6.4-2.2l1.2-1.1a6.1,6.1,0,0,0,1.2-1.6,5.6,5.6,0,0,0,.7-1.7,2.4,2.4,0,0,0-.3-1.9,5.8,5.8,0,0,0-1.5-1.1l-1.8-.7-3.6-1.2a22.6,22.6,0,0,0-3.7-1.1,18.8,18.8,0,0,1-4-1.3,10.3,10.3,0,0,1-3.1-2.4,12.9,12.9,0,0,1-1.9-4.4,7,7,0,0,1,.7-4.8,11.3,11.3,0,0,1,4.3-4.4,36.8,36.8,0,0,1,6.9-3.4,17.1,17.1,0,0,1,7.5-1,9.8,9.8,0,0,1,2.9.5l2.8,1.2a2.6,2.6,0,0,1,.7,1.4,2.7,2.7,0,0,1,0,1.8c-.2.6-.5.8-1,.7a4.3,4.3,0,0,1-1.6-.7,6.1,6.1,0,0,0-2-.9,5.6,5.6,0,0,0-2.2-.3,23.9,23.9,0,0,0-6.5,1.1,19.7,19.7,0,0,0-5.8,2.9,9.5,9.5,0,0,0-2,2,4.2,4.2,0,0,0-.6,2.8,5.9,5.9,0,0,0,4.1,5l4,1.3,4.1,1.4L272,62a14.1,14.1,0,0,1,2.9,1.8,4.5,4.5,0,0,1,1.7,3.2,6.1,6.1,0,0,1-.7,3.5,9.1,9.1,0,0,1-1.8,2.7,43.8,43.8,0,0,1-5.7,3.5A18.6,18.6,0,0,1,262.5,78.3Z"
    transform="translate(-36.1 -6.3)" style="fill:#fff" />
  <path
    d="M297.6,80.7a1.4,1.4,0,0,1-1.2-.9,7.7,7.7,0,0,1-.5-1.7l-.3-7.5c0-2.6-.1-5.1-.3-7.6s-.3-6.5-.5-9.8-.3-6.5-.5-9.9l-4.1.5-3.7.4h-2l-1.8-.6a1.9,1.9,0,0,1-1.1-1.2,6.9,6.9,0,0,1-.2-1.3c.1-.2.4-.4,1-.6l1.4-.4h6.9a2.7,2.7,0,0,0,2-.6,1.9,1.9,0,0,0,.4-2,7.4,7.4,0,0,1,0-2.1c.2-.6.8-.9,1.8-1s2.6.8,2.7,2.6.6,2,1.4,2.2a4.9,4.9,0,0,0,2.7.1l2.6-.5a7.1,7.1,0,0,1,2.5-.2,4.8,4.8,0,0,1,2.7.9l-1.2,1a2.4,2.4,0,0,1-1.1.6l-2.9.8-2.9.5a3.7,3.7,0,0,0-2.5.7,5.5,5.5,0,0,0-.5,2.8c0,5.5.1,10.9.4,16.4s.4,10.9.5,16.3a3.4,3.4,0,0,1-.4,1.5A1.4,1.4,0,0,1,297.6,80.7Z"
    transform="translate(-36.1 -6.3)" style="fill:#fff" />
  <path
    d="M165,112.1h-1a1.5,1.5,0,0,1-.9-.2l-.8-.6a3.1,3.1,0,0,1-.5-1,5.4,5.4,0,0,1,.4-1.5l.6-1.2c.1-1.3.1-2.4.1-3.4V98.2c.1-1,.1-2.1.2-3.3l-.6-.5-1.2-.6-1.4-.4a.5.5,0,0,1-.4-.2V93l.3-.5.4-.2h1.7l.9.2.9.4,3.6,2a21.9,21.9,0,0,1,3.3,2.3l1.8,1.9a7.8,7.8,0,0,1,1.2,2.2,5.4,5.4,0,0,1,.1,2.8,8.1,8.1,0,0,1-1.4,2.5,11.8,11.8,0,0,1-2.9,3,19.2,19.2,0,0,1-3.5,2.3l-.4.2Zm-.2-2.2a.7.7,0,0,0,.6.1h.5a10,10,0,0,0,1.9-1.2,10.7,10.7,0,0,0,1.6-1.4,11.4,11.4,0,0,0,1.9-2,5,5,0,0,0,.8-2,6.1,6.1,0,0,0-.2-1.5l-.6-1.2a2.2,2.2,0,0,0-.5-.8,1.6,1.6,0,0,0-.6-.8,21.1,21.1,0,0,0-2.3-1.9,11.7,11.7,0,0,0-2.7-1.5h-.6v.3c0,.4-.1.9-.1,1.6v10.5a6.8,6.8,0,0,1,.1,1.2c0,.1,0,.2.1.2S164.8,109.8,164.8,109.9Z"
    transform="translate(-36.1 -6.3)" style="fill:#fff" />
  <path
    d="M181.8,111.5h-1.6a3.2,3.2,0,0,1-1.7-.6,6.1,6.1,0,0,1-1.6-1.6,6.7,6.7,0,0,1-1-2.1,9.7,9.7,0,0,1,.1-1.8,3.7,3.7,0,0,1,.2-1.2,5.4,5.4,0,0,1,.5-1.1,9.6,9.6,0,0,1,2.3-2.6,4.6,4.6,0,0,1,2.9-1,1.3,1.3,0,0,1,.9.2,1.8,1.8,0,0,1,1.5,1,2.5,2.5,0,0,1,0,1.7,5.4,5.4,0,0,1-1.4,1.6,11,11,0,0,1-2.1,1.4l-3,1.5a2.8,2.8,0,0,0,1.5,2.3,5.1,5.1,0,0,0,3.4.7l1.7-.3h1.2c.3.1.5.4.5.9s-.2.4-.5.5a3.4,3.4,0,0,1-1.2.4l-1.4.2Zm-4.1-6.5a13.8,13.8,0,0,0,3-1.4,3.8,3.8,0,0,0,1.8-2.3h-.8C180.1,101.3,178.8,102.5,177.7,105Z"
    transform="translate(-36.1 -6.3)" style="fill:#fff" />
  <path
    d="M190.4,111.3H189a1.3,1.3,0,0,1-1-.4,1.2,1.2,0,0,1-.4-.9,1.3,1.3,0,0,1,.3-.8.5.5,0,0,1,1,0c.1.3.3.5.4.5l.6.2,1.4-.2,1.5-.3,1.2-.6.7-.3a.7.7,0,0,0,.4-.6l-.3-.4-.8-.4-.7-.4-1.6-.8-1.6-.9a3,3,0,0,1-1.3-1.2,3.7,3.7,0,0,1-.5-1.6,2.8,2.8,0,0,1,.4-1.3,3.9,3.9,0,0,1,1.4-1,6,6,0,0,1,1.9-.6l2-.4a3.9,3.9,0,0,1,2.9.9,1.4,1.4,0,0,1,.6,1,1.2,1.2,0,0,1-.5,1.1,2.5,2.5,0,0,1-1.1.4c-.4-.1-.7-.2-.7-.6l.2-.5a4.3,4.3,0,0,1,.1-.5l-1.1-.2h-1.1l-1.1.2-1.1.5a2.4,2.4,0,0,0-.9.8.9.9,0,0,0-.2.8,1,1,0,0,0,.4.7l1.4.8,1.4.8,1.1.6a3,3,0,0,1,1.1.6c.4.1.6.4.9.9a2.6,2.6,0,0,1,.3,1.1,1.2,1.2,0,0,1-.5,1l-.7.7-.8.5a8.3,8.3,0,0,1-2.1.6Z"
    transform="translate(-36.1 -6.3)" style="fill:#fff" />
  <path
    d="M201.7,98.6a.9.9,0,0,1-.7-.3l-.7-.8-.2-.6a.7.7,0,0,1,.3-.6h.6a.6.6,0,0,1,.6.3,2.1,2.1,0,0,1,.4.6l.3.6c0,.3,0,.5-.1.6A.5.5,0,0,1,201.7,98.6Zm-.3,12.8a.7.7,0,0,1-1-.3,3.6,3.6,0,0,1-.2-1.1l.3-2.2c0-.7.1-1.5.1-2.2v-1.8a10.9,10.9,0,0,1-.1-1.8,1.3,1.3,0,0,1,.1-.9.5.5,0,0,1,.6-.4.7.7,0,0,1,.7.2,2,2,0,0,1,.5.9v.7c0,.4-.1.8-.1,1.4a20.6,20.6,0,0,1,.2,2.1c0,.5-.1,1-.1,1.4l-.3,1.4c-.1.5-.2,1.2-.3,2s0,.3-.1.4S201.5,111.4,201.4,111.4Z"
    transform="translate(-36.1 -6.3)" style="fill:#fff" />
  <path
    d="M210.2,122.9a3.9,3.9,0,0,1-2.3-.7,5.2,5.2,0,0,1-1.8-1.8,3.8,3.8,0,0,1-.7-2.2,3.9,3.9,0,0,1,.4-1.8,5.6,5.6,0,0,1,.9-1.7.4.4,0,0,1,.6-.3.5.5,0,0,1,.5.3.5.5,0,0,1-.1.6,4.2,4.2,0,0,0-.6,1.4,5.9,5.9,0,0,0-.2,1.4,2.9,2.9,0,0,0,.4,1.6,3.5,3.5,0,0,0,1,1.1,3.1,3.1,0,0,0,1.4.7,2.6,2.6,0,0,0,1.5-.1,2.4,2.4,0,0,0,1.2-.9l1.1-1.8a5.8,5.8,0,0,0,.6-1.7,6.6,6.6,0,0,0,.3-2.1v-4.4a15,15,0,0,1-.2-2.2l-.3-2.3-.7.8-.6.8a4.8,4.8,0,0,1-1.6,1.3,5.3,5.3,0,0,1-1.9.6,2.5,2.5,0,0,1-1.9-.4,2.9,2.9,0,0,1-1.3-1.4,7,7,0,0,1-.6-1.9,7.8,7.8,0,0,1,1.6-5.3,5.7,5.7,0,0,1,1.5-1.2,4,4,0,0,1,1.5-.3,3,3,0,0,1,1.9.5,6.1,6.1,0,0,1,1.6,1.2,1.5,1.5,0,0,1,1.1-.7,1.1,1.1,0,0,1,1,.6,1.5,1.5,0,0,1,.3,1.3,2.8,2.8,0,0,1-.1,1c-.1.2-.1.4-.2.6s-.1.6-.1,1.1.1.7.1,1,.1.7.1,1.1.2,1.4.3,2,.1.9.2,1.3.1.8.1,1.2v3a18.1,18.1,0,0,1-.2,2.5,17.2,17.2,0,0,1-.7,2.1c-.4.6-.8,1.4-1.4,2.2a4.3,4.3,0,0,1-1.6,1.4A5.4,5.4,0,0,1,210.2,122.9ZM209.1,108a2.1,2.1,0,0,0,1.6-.7c.4-.5.8-.9,1.2-1.5l1.2-1.4a2.5,2.5,0,0,0,.4-1.4,5.2,5.2,0,0,0-.2-1.1l-.9.2a1.1,1.1,0,0,1-.8-.2l-.4-.5-.4-.5-.5-.2a1.9,1.9,0,0,0-.9.3,3.5,3.5,0,0,0-1.8,2,7.6,7.6,0,0,0-.5,2.7,2.9,2.9,0,0,0,.5,1.7A2,2,0,0,0,209.1,108Z"
    transform="translate(-36.1 -6.3)" style="fill:#fff" />
  <path
    d="M228.4,112.6a.4.4,0,0,1-.5-.2l-.3-.7a1.9,1.9,0,0,0-.2-.8,20.5,20.5,0,0,0-.5-2.4l-.6-2.4c-.2-.8-.4-1.2-.7-1.4s-.4-.1-.7.2a3.5,3.5,0,0,0-.7.9l-.6,1.4-.6,1.4a3.1,3.1,0,0,1-.5,1,3.1,3.1,0,0,1-.5,1l-.5.5a.9.9,0,0,1-.7.1,1,1,0,0,1-.8-.3,2.1,2.1,0,0,1-.3-.7,2.9,2.9,0,0,1-.2-.9,1.7,1.7,0,0,1-.1-.7,20,20,0,0,1-.4-2.4,19.5,19.5,0,0,0-.2-2.3.6.6,0,0,1,.1-.6.8.8,0,0,1,.4-.4h.3a.7.7,0,0,1,.6.2,2.1,2.1,0,0,1,.4.6c0,.5.1.9.1,1.4s.1,1,.2,1.4a10.4,10.4,0,0,0,.2,1.5,2.1,2.1,0,0,0,.4-.6l.3-.4a5.4,5.4,0,0,1,.5-1.1,7.8,7.8,0,0,1,1.2-1.9l.6-.7a2.7,2.7,0,0,1,1.3-.5,1.9,1.9,0,0,1,1.6.9,1.8,1.8,0,0,1,.5.7l.3.7a17.7,17.7,0,0,1,.8,3.1c.2,1,.4,2.1.5,3.1a2.2,2.2,0,0,1-.1.9A.7.7,0,0,1,228.4,112.6Z"
    transform="translate(-36.1 -6.3)" style="fill:#fff" />
  <path
    d="M243.5,113.3l-1.1-.2-.9-.3a1.3,1.3,0,0,1-.7-.6,1.6,1.6,0,0,1-.3-.9.6.6,0,0,1,.3-.6.6.6,0,0,1,.7-.1c.3,0,.4.2.6.4a1.5,1.5,0,0,0,.9.7h1l1.6-.6a3,3,0,0,0,1.6-2.1,1,1,0,0,0-.3-1l-.9-1.4a6.3,6.3,0,0,0-1.1-1.2,14.5,14.5,0,0,0-1.8-1.7l-1.8-1.7-1-1.2a10,10,0,0,1-.8-1.4,5.8,5.8,0,0,1-.5-2.8,3.9,3.9,0,0,1,1.3-2.7,8.9,8.9,0,0,1,3.2-2.1,5.8,5.8,0,0,1,3.9-.2,2.1,2.1,0,0,1,1.1.4l1.1.6a2.1,2.1,0,0,1,.4.6.7.7,0,0,1-.2.8h-.5l-.6-.2a2.6,2.6,0,0,0-1.5-.7,4.1,4.1,0,0,0-1.9.1,6.7,6.7,0,0,0-1.8.7A5.7,5.7,0,0,0,242,95a5.5,5.5,0,0,0-.8,1.5,3.8,3.8,0,0,0-.1,1.5,3.7,3.7,0,0,0,.5,1.6l1.2,1.6,1.5,1.3a8.6,8.6,0,0,1,1.4,1.3,15.9,15.9,0,0,0,1.3,1.3l1.1,1.3a4.6,4.6,0,0,1,1,2.3,3,3,0,0,1-.5,2.1,4.3,4.3,0,0,1-1.9,1.6l-1.6.5Z"
    transform="translate(-36.1 -6.3)" style="fill:#fff" />
  <path
    d="M258.8,116.2s-.1,0-.2-.2l-.2-.3c-.1-.8-.1-1.4-.2-1.9s.1-1,.1-1.4a6.8,6.8,0,0,1,.2-1.4c.1-.5.1-1.1.2-1.8l.6-4.8a.6.6,0,0,1,.1-.4v-.4l-.5.7a3.9,3.9,0,0,1-1,.8l-1.1.8a2.5,2.5,0,0,1-3.8-.5,8.6,8.6,0,0,1-1-1.6,3.5,3.5,0,0,1-.5-1.8v-.6l.4-.3a1.1,1.1,0,0,1,.8.1l.6.6c.1.4.3.8.4,1.1a3.7,3.7,0,0,0,.5,1.1,1.2,1.2,0,0,0,.9.6.9.9,0,0,0,.9-.3c.6-.5,1.1-1.1,1.6-1.6l1.5-1.6.4-.5a.9.9,0,0,1,.6-.3.7.7,0,0,1,.9.1,1.4,1.4,0,0,1,.4,1.1,10.9,10.9,0,0,1-.1,1.8,12.3,12.3,0,0,1-.2,1.9c-.1,1.1-.3,2.3-.5,3.4s-.3,2.3-.5,3.5-.1.8-.1,1.3-.1.9-.1,1.3-.1.4-.1.6a.8.8,0,0,1-.2.5l-.3.3Z"
    transform="translate(-36.1 -6.3)" style="fill:#fff" />
  <path
    d="M266.9,111.3h-1.1l-1.1-.2a1.9,1.9,0,0,1-.9-.5.4.4,0,0,1-.2-.6l.2-.3H267a2.1,2.1,0,0,0,1-.6,1.6,1.6,0,0,0,.2-1.2,2.2,2.2,0,0,0-.4-1.3l-.4-.7a10.5,10.5,0,0,1-.8-1.3l-.9-1.4a2.8,2.8,0,0,1,0-3.2,1.8,1.8,0,0,1,1.4-1h1.5l1.4.2,1.8.2h1.6a1,1,0,0,0,.7-.2c.1,0,.2-.2.2-.4v-.5a3.4,3.4,0,0,1-.1-.9.6.6,0,0,1,.1-.4c0-.3,0-.5.2-.6s.3-.2.5-.3h.5a1,1,0,0,1,.5.4.5.5,0,0,1,.3.5l-.2,1.9a.8.8,0,0,0,.1.4.5.5,0,0,0,.4.2h2.7l.6.2q.3.1.3.3c0,.2-.1.3-.3.4l-.6.3H277c-.5,0-.7.3-.7.8v8.2c0,.3-.1.6-.1.8s-.4.2-.8.2-.4,0-.5-.2-.1-.3-.1-.6-.4-3.7-.6-7.6v-.6q0-.6-1.2-.9h-.8l-1.5-.2h-2.4c-.4.1-.8.2-.9.5a1.7,1.7,0,0,0-.3,1,2.1,2.1,0,0,0,.4,1.2,4.7,4.7,0,0,0,.9,1.2l.8,1.1a3.5,3.5,0,0,1,.9,1.7,2.6,2.6,0,0,1-.2,1.7,4.3,4.3,0,0,1-1.2,1.7A2.6,2.6,0,0,1,266.9,111.3Z"
    transform="translate(-36.1 -6.3)" style="fill:#fff" />
  <path
    d="M288,111.5h-1.7a2.9,2.9,0,0,1-1.6-.6,8.5,8.5,0,0,1-1.7-1.6,4.8,4.8,0,0,1-.9-2.1v-1.8a3.7,3.7,0,0,1,.2-1.2l.6-1.1a8.2,8.2,0,0,1,2.3-2.6,4.6,4.6,0,0,1,2.9-1,1.1,1.1,0,0,1,.8.2,1.6,1.6,0,0,1,1.5,1,1.7,1.7,0,0,1,0,1.7,4,4,0,0,1-1.3,1.6,11,11,0,0,1-2.1,1.4l-3.1,1.5a3.4,3.4,0,0,0,1.5,2.3,5.2,5.2,0,0,0,3.4.7l1.8-.3h1.2c.3.1.4.4.4.9a.5.5,0,0,1-.4.5l-1.2.4-1.5.2Zm-4.1-6.5a11.2,11.2,0,0,0,2.9-1.4,4.3,4.3,0,0,0,1.9-2.3h-.9C286.2,101.3,284.9,102.5,283.9,105Z"
    transform="translate(-36.1 -6.3)" style="fill:#fff" />
  <path
    d="M296,111.6a1.1,1.1,0,0,1-.8-.5,1.9,1.9,0,0,1-.4-.9,9.9,9.9,0,0,1-.2-1.7c-.1-.6-.1-1.2-.2-1.8V104a24.4,24.4,0,0,1-.1-2.7v-.7a.6.6,0,0,1,.5-.5,1.1,1.1,0,0,1,.8.2.9.9,0,0,1,.3.7l.3,1.8v4.7a6.8,6.8,0,0,1,.1,1.2v.4l.5-.8.5-.8,1-2.1a20,20,0,0,1,1-2.1l.4-.7.5-.7a1.7,1.7,0,0,1,1.5-.6,1.5,1.5,0,0,1,1.2,1.1,2.4,2.4,0,0,1,.2.9l.3,1.1a3.6,3.6,0,0,0,.2,1.1,3.5,3.5,0,0,0,.1.6,2.5,2.5,0,0,0,.2.7,2.3,2.3,0,0,0,.3.9l.5-1.1.6-1.5a5.3,5.3,0,0,0,.6-1.4l.5-1c0-.2.1-.3,0-.1a2.6,2.6,0,0,1,.7-1,1.6,1.6,0,0,1,1.2-.4,1.3,1.3,0,0,1,1.1.5,3.7,3.7,0,0,1,.5,1.1,18.3,18.3,0,0,1,.8,2.5c.3.8.5,1.7.8,2.5a2.4,2.4,0,0,0,.2.8,1.9,1.9,0,0,0,.2.7,3.4,3.4,0,0,1,.1.9c0,.2,0,.3-.1.4l-.7.4-.4-.2-.3-.4c-.3-.8-.5-1.6-.8-2.3s-.5-1.6-.8-2.3l-.4-1-.4-1a1.6,1.6,0,0,0-.6.8l-.3,1-.9,2.2-1.3,2c-.5.6-.9.9-1.3.8s-.8-.4-1.1-1a4.9,4.9,0,0,1-.4-1.1,3.6,3.6,0,0,0-.2-1.1c-.1-.6-.2-1.1-.2-1.3a2,2,0,0,1-.1-.7c-.1-.1-.1-.3-.2-.5l-.5-1-.9,1.9-1,2-.9,1.5-.9,1.5a1.2,1.2,0,0,1-.6.6A.8.8,0,0,1,296,111.6Z"
    transform="translate(-36.1 -6.3)" style="fill:#fff" />
  <path
    d="M84.3,142.4c3.1,0,7.5-20.4,9.4-20.4s7.8,15.7,11,17.3c3.1-1.6,4.8-18.9,6.3-18.9,3.1,0,9.4,14.9,11,14.2s2-7,3-23c.2-2.4,4.7,5.2,4.8,2.5s-3.9-18.8-3.8-23.7c.1-2.3,5.3,4.1,5.4,1.7.1-4.5-4.9-17.8-4.8-22.7,0-2.4,4.8,3.2,4.8.7s-4.7-9.4-4.7-17.2c0-3,5,4.1,4.7,1.5s-4.1-14.9-4.7-17.3C118.3,5,84.2,7.3,84.2,7.3h.1S50.2,5,41.8,37.1c-.6,2.4-4.4,14.6-4.7,17.3s4.7-4.5,4.7-1.5c0,7.8-4.7,14.2-4.7,17.2s4.8-3.1,4.9-.7c0,4.9-5,18.2-4.9,22.7.1,2.4,5.3-4,5.4-1.7.1,4.9-4,19.5-3.8,23.7s4.6-4.9,4.8-2.5c1,16,2.2,22.6,3,23s7.9-14.2,11-14.2c1.5,0,3.2,17.3,6.3,18.9,3.2-1.6,7-17.3,9.5-17.3S81.1,142.4,84.3,142.4Z"
    transform="translate(-36.1 -6.3)" style="fill:none;stroke:#fff;stroke-miterlimit:10;stroke-width:2px" />
  <polyline points="26.6 40.9 29.9 40.9 36.8 40.9"
    style="fill:none;stroke:#fff;stroke-miterlimit:10;stroke-width:1.75px" />
  <path d="M66.2,47.1s-.3,6.4,1.6,6.4,1.9-6.4,1.9-6.4" transform="translate(-36.1 -6.3)"
    style="fill:none;stroke:#fff;stroke-miterlimit:10;stroke-width:1.75px" />
  <polyline points="59.6 40.9 62.9 40.9 69.8 40.9"
    style="fill:none;stroke:#fff;stroke-miterlimit:10;stroke-width:1.75px" />
  <path d="M99.2,47.1s-.3,6.4,1.6,6.4,1.9-6.4,1.9-6.4" transform="translate(-36.1 -6.3)"
    style="fill:none;stroke:#fff;stroke-miterlimit:10;stroke-width:1.75px" />
  <path d="M49.1,97c.1,1.3-2.8,5-2.6,6.1s3.2-1.2,3.3-.6c.7,4.1,1.6,5.8,2.1,5.9s1.4-2.2,1.8-4.3"
    transform="translate(-36.1 -6.3)" style="fill:none;stroke:#fff;stroke-miterlimit:10;stroke-width:1.5px" />
  <path d="M78.3,114.7c.7,4.1,1.5,5.8,2.1,5.9s1.4-2.2,1.8-4.3" transform="translate(-36.1 -6.3)"
    style="fill:none;stroke:#fff;stroke-miterlimit:10;stroke-width:1.5px" />
  <path d="M107.4,18.7c2.8,2.2,4.5,4.7,4,7.6-1.6-1.9-3.2-2.2-5-3.3" transform="translate(-36.1 -6.3)"
    style="fill:none;stroke:#fff;stroke-linejoin:round;stroke-width:1.5px" />
  <path d="M52.1,30.2c-1.7,2.5-2.6,4.8-1.6,6.9.9-1.9,2-2.6,3.1-3.9" transform="translate(-36.1 -6.3)"
    style="fill:none;stroke:#fff;stroke-linejoin:round;stroke-width:1.5px" />
  <path d="M108.4,107.2c-.2,1.2,2.7,5,2.6,6.1s-3.2-1.3-3.3-.7c-.7,4.2-1.6,5.8-2.2,5.9s-1.3-2.1-1.8-4.2"
    transform="translate(-36.1 -6.3)" style="fill:none;stroke:#fff;stroke-miterlimit:10;stroke-width:1.5px" />
  <path d="M57.2,63c-3,1.7-3.9,5.5-4.4,6.5s4.6-.6,4.3-.1c-1.7,3.8-.4,8.4.4,7.1s3.3-4,4.9-4.3"
    transform="translate(-36.1 -6.3)" style="fill:none;stroke:#fff;stroke-miterlimit:10;stroke-width:1.75px" />
  <path d="M111.4,63c3,1.7,3.9,5.5,4.4,6.5s-4.6-.6-4.3-.1c1.7,3.8.4,8.4-.4,7.1s-3.3-4-4.9-4.3"
    transform="translate(-36.1 -6.3)" style="fill:none;stroke:#fff;stroke-miterlimit:10;stroke-width:1.75px" />
  <path d="M119.4,90.4c.6,3.2.4,4.6.1,4.8s-1.5-1.2-2.4-2.7" transform="translate(-36.1 -6.3)"
    style="fill:none;stroke:#fff;stroke-miterlimit:10;stroke-width:1.5px" />
  <polygon points="48.6 60.3 45.4 54.7 51.9 54.7 48.6 60.3"
    style="fill:none;stroke:#fff;stroke-linejoin:round;stroke-width:1.5px" />
  <polygon
    points="114.3 18.7 111.3 15.3 106.8 15.7 109.1 11.8 107.3 7.6 111.7 8.7 115.1 5.6 115.5 10.2 119.5 12.5 115.3 14.2 114.3 18.7"
    style="fill:none;stroke:#fff;stroke-linecap:round;stroke-linejoin:round;stroke-width:1.5px" />
  <path d="M144.8,27.2c-.7,4.5-7.6,4.6-7.6,7.7s5.3,1.4,5.3,3.8-4.7,5.6-7.4,6.5" transform="translate(-36.1 -6.3)"
    style="fill:none;stroke:#fff;stroke-linecap:round;stroke-linejoin:round" />
</svg>